<svg xmlns="http://www.w3.org/2000/svg" viewBox="0 0 1200 900" width="1200" height="900" role="img"><defs><radialGradient id="vig"><stop offset="0" stop-color="rgba(0,0,0,0)"/><stop offset="1" stop-color="rgba(40,20,10,0.16)"/></radialGradient><radialGradient id="warm"><stop offset="0" stop-color="#fdf0d0"/><stop offset="1" stop-color="#f7e6d3"/></radialGradient></defs><rect width="1200" height="900" fill="#f7e6d3"/><rect x="0" y="0" width="2" height="900" fill="#edd3b6" opacity=".55"/><rect x="46" y="0" width="2" height="900" fill="#edd3b6" opacity=".55"/><rect x="92" y="0" width="2" height="900" fill="#edd3b6" opacity=".55"/><rect x="138" y="0" width="2" height="900" fill="#edd3b6" opacity=".55"/><rect x="184" y="0" width="2" height="900" fill="#edd3b6" opacity=".55"/><rect x="230" y="0" width="2" height="900" fill="#edd3b6" opacity=".55"/><rect x="276" y="0" width="2" height="900" fill="#edd3b6" opacity=".55"/><rect x="322" y="0" width="2" height="900" fill="#edd3b6" opacity=".55"/><rect x="368" y="0" width="2" height="900" fill="#edd3b6" opacity=".55"/><rect x="414" y="0" width="2" height="900" fill="#edd3b6" opacity=".55"/><rect x="460" y="0" width="2" height="900" fill="#edd3b6" opacity=".55"/><rect x="506" y="0" width="2" height="900" fill="#edd3b6" opacity=".55"/><rect x="552" y="0" width="2" height="900" fill="#edd3b6" opacity=".55"/><rect x="598" y="0" width="2" height="900" fill="#edd3b6" opacity=".55"/><rect x="644" y="0" width="2" height="900" fill="#edd3b6" opacity=".55"/><rect x="690" y="0" width="2" height="900" fill="#edd3b6" opacity=".55"/><rect x="736" y="0" width="2" height="900" fill="#edd3b6" opacity=".55"/><rect x="782" y="0" width="2" height="900" fill="#edd3b6" opacity=".55"/><rect x="828" y="0" width="2" height="900" fill="#edd3b6" opacity=".55"/><rect x="874" y="0" width="2" height="900" fill="#edd3b6" opacity=".55"/><rect x="920" y="0" width="2" height="900" fill="#edd3b6" opacity=".55"/><rect x="966" y="0" width="2" height="900" fill="#edd3b6" opacity=".55"/><rect x="1012" y="0" width="2" height="900" fill="#edd3b6" opacity=".55"/><rect x="1058" y="0" width="2" height="900" fill="#edd3b6" opacity=".55"/><rect x="1104" y="0" width="2" height="900" fill="#edd3b6" opacity=".55"/><rect x="1150" y="0" width="2" height="900" fill="#edd3b6" opacity=".55"/><rect x="1196" y="0" width="2" height="900" fill="#edd3b6" opacity=".55"/><rect x="0" y="0" width="1200" height="2" fill="#edd3b6" opacity=".4"/><rect x="0" y="46" width="1200" height="2" fill="#edd3b6" opacity=".4"/><rect x="0" y="92" width="1200" height="2" fill="#edd3b6" opacity=".4"/><rect x="0" y="138" width="1200" height="2" fill="#edd3b6" opacity=".4"/><rect x="0" y="184" width="1200" height="2" fill="#edd3b6" opacity=".4"/><rect x="0" y="230" width="1200" height="2" fill="#edd3b6" opacity=".4"/><rect x="0" y="276" width="1200" height="2" fill="#edd3b6" opacity=".4"/><rect x="0" y="322" width="1200" height="2" fill="#edd3b6" opacity=".4"/><rect x="0" y="368" width="1200" height="2" fill="#edd3b6" opacity=".4"/><rect x="0" y="414" width="1200" height="2" fill="#edd3b6" opacity=".4"/><rect x="0" y="460" width="1200" height="2" fill="#edd3b6" opacity=".4"/><rect x="0" y="506" width="1200" height="2" fill="#edd3b6" opacity=".4"/><rect x="0" y="552" width="1200" height="2" fill="#edd3b6" opacity=".4"/><rect x="0" y="598" width="1200" height="2" fill="#edd3b6" opacity=".4"/><rect x="0" y="644" width="1200" height="2" fill="#edd3b6" opacity=".4"/><rect x="0" y="690" width="1200" height="2" fill="#edd3b6" opacity=".4"/><rect x="0" y="736" width="1200" height="2" fill="#edd3b6" opacity=".4"/><rect x="0" y="782" width="1200" height="2" fill="#edd3b6" opacity=".4"/><rect x="0" y="828" width="1200" height="2" fill="#edd3b6" opacity=".4"/><rect x="0" y="874" width="1200" height="2" fill="#edd3b6" opacity=".4"/><circle cx="275" cy="582" r="1" fill="#dfc0a0" opacity=".35"/><circle cx="522" cy="120" r="2" fill="#dfc0a0" opacity=".35"/><circle cx="920" cy="483" r="3" fill="#dfc0a0" opacity=".35"/><circle cx="777" cy="807" r="1" fill="#dfc0a0" opacity=".35"/><circle cx="192" cy="499" r="1" fill="#dfc0a0" opacity=".35"/><circle cx="798" cy="443" r="3" fill="#dfc0a0" opacity=".35"/><circle cx="4" cy="712" r="2" fill="#dfc0a0" opacity=".35"/><circle cx="545" cy="738" r="1" fill="#dfc0a0" opacity=".35"/><circle cx="209" cy="325" r="1" fill="#dfc0a0" opacity=".35"/><circle cx="45" cy="26" r="3" fill="#dfc0a0" opacity=".35"/><circle cx="1108" cy="9" r="2" fill="#dfc0a0" opacity=".35"/><circle cx="443" cy="432" r="3" fill="#dfc0a0" opacity=".35"/><circle cx="59" cy="540" r="1" fill="#dfc0a0" opacity=".35"/><circle cx="896" cy="507" r="3" fill="#dfc0a0" opacity=".35"/><circle cx="477" cy="353" r="1" fill="#dfc0a0" opacity=".35"/><circle cx="448" cy="779" r="2" fill="#dfc0a0" opacity=".35"/><circle cx="593" cy="22" r="2" fill="#dfc0a0" opacity=".35"/><circle cx="1139" cy="657" r="1" fill="#dfc0a0" opacity=".35"/><circle cx="380" cy="644" r="3" fill="#dfc0a0" opacity=".35"/><circle cx="607" cy="123" r="3" fill="#dfc0a0" opacity=".35"/><circle cx="681" cy="738" r="3" fill="#dfc0a0" opacity=".35"/><circle cx="1025" cy="432" r="3" fill="#dfc0a0" opacity=".35"/><circle cx="388" cy="310" r="2" fill="#dfc0a0" opacity=".35"/><circle cx="1022" cy="866" r="3" fill="#dfc0a0" opacity=".35"/><circle cx="805" cy="603" r="1" fill="#dfc0a0" opacity=".35"/><circle cx="983" cy="248" r="3" fill="#dfc0a0" opacity=".35"/><circle cx="827" cy="424" r="3" fill="#dfc0a0" opacity=".35"/><circle cx="354" cy="375" r="3" fill="#dfc0a0" opacity=".35"/><circle cx="767" cy="88" r="2" fill="#dfc0a0" opacity=".35"/><circle cx="1041" cy="110" r="1" fill="#dfc0a0" opacity=".35"/><circle cx="1066" cy="860" r="2" fill="#dfc0a0" opacity=".35"/><circle cx="758" cy="501" r="3" fill="#dfc0a0" opacity=".35"/><circle cx="60" cy="480" r="1" fill="#dfc0a0" opacity=".35"/><circle cx="631" cy="720" r="3" fill="#dfc0a0" opacity=".35"/><circle cx="1184" cy="403" r="3" fill="#dfc0a0" opacity=".35"/><circle cx="348" cy="172" r="3" fill="#dfc0a0" opacity=".35"/><circle cx="464" cy="12" r="1" fill="#dfc0a0" opacity=".35"/><circle cx="1105" cy="880" r="3" fill="#dfc0a0" opacity=".35"/><circle cx="475" cy="414" r="3" fill="#dfc0a0" opacity=".35"/><circle cx="704" cy="867" r="3" fill="#dfc0a0" opacity=".35"/><circle cx="723" cy="470" r="2" fill="#dfc0a0" opacity=".35"/><circle cx="1122" cy="623" r="3" fill="#dfc0a0" opacity=".35"/><circle cx="11" cy="392" r="3" fill="#dfc0a0" opacity=".35"/><circle cx="1049" cy="828" r="1" fill="#dfc0a0" opacity=".35"/><circle cx="1062" cy="796" r="3" fill="#dfc0a0" opacity=".35"/><circle cx="420" cy="436" r="1" fill="#dfc0a0" opacity=".35"/><circle cx="985" cy="890" r="2" fill="#dfc0a0" opacity=".35"/><circle cx="1167" cy="567" r="1" fill="#dfc0a0" opacity=".35"/><circle cx="1033" cy="423" r="2" fill="#dfc0a0" opacity=".35"/><circle cx="730" cy="424" r="2" fill="#dfc0a0" opacity=".35"/><circle cx="3" cy="551" r="3" fill="#dfc0a0" opacity=".35"/><circle cx="678" cy="469" r="3" fill="#dfc0a0" opacity=".35"/><circle cx="57" cy="823" r="1" fill="#dfc0a0" opacity=".35"/><circle cx="362" cy="563" r="3" fill="#dfc0a0" opacity=".35"/><circle cx="370" cy="881" r="1" fill="#dfc0a0" opacity=".35"/><circle cx="1128" cy="816" r="2" fill="#dfc0a0" opacity=".35"/><circle cx="66" cy="861" r="3" fill="#dfc0a0" opacity=".35"/><circle cx="144" cy="85" r="1" fill="#dfc0a0" opacity=".35"/><circle cx="927" cy="14" r="2" fill="#dfc0a0" opacity=".35"/><circle cx="511" cy="275" r="1" fill="#dfc0a0" opacity=".35"/><circle cx="378" cy="352" r="2" fill="#dfc0a0" opacity=".35"/><circle cx="142" cy="171" r="1" fill="#dfc0a0" opacity=".35"/><circle cx="522" cy="540" r="1" fill="#dfc0a0" opacity=".35"/><circle cx="558" cy="663" r="3" fill="#dfc0a0" opacity=".35"/><circle cx="603" cy="465" r="3" fill="#dfc0a0" opacity=".35"/><circle cx="659" cy="508" r="2" fill="#dfc0a0" opacity=".35"/><circle cx="233" cy="24" r="2" fill="#dfc0a0" opacity=".35"/><circle cx="791" cy="351" r="2" fill="#dfc0a0" opacity=".35"/><circle cx="385" cy="264" r="1" fill="#dfc0a0" opacity=".35"/><circle cx="519" cy="747" r="3" fill="#dfc0a0" opacity=".35"/><circle cx="428" cy="620" r="2" fill="#dfc0a0" opacity=".35"/><circle cx="42" cy="230" r="1" fill="#dfc0a0" opacity=".35"/><circle cx="813" cy="149" r="1" fill="#dfc0a0" opacity=".35"/><circle cx="328" cy="456" r="3" fill="#dfc0a0" opacity=".35"/><circle cx="1036" cy="694" r="2" fill="#dfc0a0" opacity=".35"/><circle cx="1115" cy="852" r="1" fill="#dfc0a0" opacity=".35"/><circle cx="1057" cy="461" r="1" fill="#dfc0a0" opacity=".35"/><circle cx="1072" cy="664" r="1" fill="#dfc0a0" opacity=".35"/><circle cx="808" cy="691" r="3" fill="#dfc0a0" opacity=".35"/><circle cx="657" cy="675" r="3" fill="#dfc0a0" opacity=".35"/><circle cx="873" cy="60" r="3" fill="#dfc0a0" opacity=".35"/><circle cx="611" cy="128" r="1" fill="#dfc0a0" opacity=".35"/><circle cx="97" cy="313" r="1" fill="#dfc0a0" opacity=".35"/><circle cx="156" cy="317" r="2" fill="#dfc0a0" opacity=".35"/><circle cx="324" cy="426" r="3" fill="#dfc0a0" opacity=".35"/><circle cx="516" cy="133" r="1" fill="#dfc0a0" opacity=".35"/><circle cx="1148" cy="899" r="1" fill="#dfc0a0" opacity=".35"/><circle cx="445" cy="583" r="2" fill="#dfc0a0" opacity=".35"/><circle cx="351" cy="847" r="3" fill="#dfc0a0" opacity=".35"/><circle cx="1042" cy="38" r="2" fill="#dfc0a0" opacity=".35"/><rect width="1200" height="900" fill="url(#vig)"/><circle cx="600" cy="450" r="330" fill="#fff9f0" opacity=".55"/><circle cx="600" cy="450" r="330" fill="none" stroke="#f7d98a" stroke-width="2" opacity=".5"/><circle cx="752.0279579551077" cy="587.8858223313767" r="101" fill="#5c2110" opacity=".10"/><circle cx="752.0279579551077" cy="587.8858223313767" r="96" fill="#fff9f0"/><circle cx="752.0279579551077" cy="587.8858223313767" r="89" fill="none" stroke="#f7d98a" stroke-width="2.5" opacity=".8"/><circle cx="752.0279579551077" cy="587.8858223313767" r="59.5" fill="none" stroke="#f7d98a" stroke-width="1.2" opacity=".45"/><polygon points="808.7,587.9 803.0,610.0 780.4,619.8 762.2,628.1 739.8,636.3 718.4,625.8 704.2,608.6 703.5,587.9 704.9,567.5 719.4,551.1 740.5,542.3 762.4,546.9 783.3,552.6 796.7,568.5" fill="#e8a92b"/><circle cx="746.8" cy="561.9" r="11.1" fill="#fff9f0" opacity=".16"/><circle cx="738.7" cy="584.7" r="6.9" fill="#fff9f0" opacity=".16"/><circle cx="752.9" cy="588.0" r="8.1" fill="#fff9f0" opacity=".16"/><circle cx="747.1" cy="597.0" r="10.8" fill="#fff9f0" opacity=".16"/><circle cx="734.8" cy="585.5" r="6.7" fill="#fff9f0" opacity=".16"/><circle cx="762.1" cy="589.2" r="6.1" fill="#fff9f0" opacity=".16"/><circle cx="720.9" cy="586.2" r="9.4" fill="#fff9f0" opacity=".16"/><circle cx="763.6" cy="609.4" r="10.2" fill="#fff9f0" opacity=".16"/><circle cx="749.3" cy="564.0" r="10.0" fill="#fff9f0" opacity=".16"/><circle cx="749.1" cy="593.8" r="2.6" fill="#f7d98a" opacity=".9"/><circle cx="753.8" cy="584.2" r="2.7" fill="#f7d98a" opacity=".9"/><circle cx="750.4" cy="587.8" r="3.8" fill="#c2452a" opacity=".9"/><circle cx="753.4" cy="612.1" r="5.0" fill="#6f9a58" opacity=".9"/><circle cx="759.0" cy="594.8" r="4.2" fill="#f7d98a" opacity=".9"/><circle cx="775.9" cy="597.6" r="5.4" fill="#6f9a58" opacity=".9"/><circle cx="447.9720420448923" cy="587.8858223313767" r="101" fill="#5c2110" opacity=".10"/><circle cx="447.9720420448923" cy="587.8858223313767" r="96" fill="#fff9f0"/><circle cx="447.9720420448923" cy="587.8858223313767" r="89" fill="none" stroke="#f7d98a" stroke-width="2.5" opacity=".8"/><circle cx="447.9720420448923" cy="587.8858223313767" r="59.5" fill="none" stroke="#f7d98a" stroke-width="1.2" opacity=".45"/><polygon points="495.7,587.9 494.4,608.0 478.7,622.6 459.6,633.7 436.3,634.0 419.6,619.9 407.5,605.4 392.8,587.9 404.8,569.2 418.3,554.4 435.3,537.7 459.2,543.5 482.4,549.1 493.6,568.1" fill="#e07a28"/><circle cx="445.0" cy="584.8" r="9.2" fill="#fff9f0" opacity=".16"/><circle cx="459.0" cy="577.7" r="9.8" fill="#fff9f0" opacity=".16"/><circle cx="447.0" cy="586.4" r="9.9" fill="#fff9f0" opacity=".16"/><circle cx="440.1" cy="583.6" r="5.4" fill="#fff9f0" opacity=".16"/><circle cx="457.8" cy="578.5" r="9.7" fill="#fff9f0" opacity=".16"/><circle cx="464.1" cy="574.8" r="10.9" fill="#fff9f0" opacity=".16"/><circle cx="428.2" cy="600.9" r="8.0" fill="#fff9f0" opacity=".16"/><circle cx="473.2" cy="578.7" r="5.8" fill="#fff9f0" opacity=".16"/><circle cx="452.4" cy="592.2" r="11.2" fill="#fff9f0" opacity=".16"/><circle cx="454.1" cy="629.8" r="3.1" fill="#6f9a58" opacity=".9"/><circle cx="453.8" cy="589.5" r="3.1" fill="#f7d98a" opacity=".9"/><circle cx="435.3" cy="572.2" r="3.7" fill="#c2452a" opacity=".9"/><circle cx="412.6" cy="570.4" r="2.8" fill="#c2452a" opacity=".9"/><circle cx="448.1" cy="588.8" r="4.1" fill="#c2452a" opacity=".9"/><circle cx="408.4" cy="594.3" r="2.8" fill="#f7d98a" opacity=".9"/><circle cx="447.97204204489225" cy="312.11417766862326" r="101" fill="#5c2110" opacity=".10"/><circle cx="447.97204204489225" cy="312.11417766862326" r="96" fill="#fff9f0"/><circle cx="447.97204204489225" cy="312.11417766862326" r="89" fill="none" stroke="#f7d98a" stroke-width="2.5" opacity=".8"/><circle cx="447.97204204489225" cy="312.11417766862326" r="59.5" fill="none" stroke="#f7d98a" stroke-width="1.2" opacity=".45"/><polygon points="495.6,312.1 489.4,330.1 478.9,347.1 458.4,353.1 437.8,352.1 417.0,347.1 397.4,334.1 393.3,312.1 399.1,290.9 418.4,278.7 436.5,267.0 458.7,269.8 477.2,279.1 489.5,294.1" fill="#c2452a"/><circle cx="454.4" cy="336.1" r="10.4" fill="#fff9f0" opacity=".16"/><circle cx="456.7" cy="292.2" r="6.4" fill="#fff9f0" opacity=".16"/><circle cx="440.8" cy="327.6" r="9.8" fill="#fff9f0" opacity=".16"/><circle cx="464.8" cy="293.6" r="5.7" fill="#fff9f0" opacity=".16"/><circle cx="431.5" cy="301.1" r="8.4" fill="#fff9f0" opacity=".16"/><circle cx="454.4" cy="323.4" r="5.8" fill="#fff9f0" opacity=".16"/><circle cx="472.7" cy="302.9" r="8.6" fill="#fff9f0" opacity=".16"/><circle cx="439.2" cy="335.0" r="8.8" fill="#fff9f0" opacity=".16"/><circle cx="467.5" cy="297.0" r="8.4" fill="#fff9f0" opacity=".16"/><circle cx="432.0" cy="315.9" r="3.1" fill="#6f9a58" opacity=".9"/><circle cx="441.4" cy="298.8" r="5.2" fill="#c2452a" opacity=".9"/><circle cx="469.3" cy="324.0" r="4.6" fill="#f7d98a" opacity=".9"/><circle cx="447.0" cy="304.7" r="5.4" fill="#c2452a" opacity=".9"/><circle cx="441.4" cy="315.6" r="2.8" fill="#6f9a58" opacity=".9"/><circle cx="407.4" cy="310.5" r="2.7" fill="#f7d98a" opacity=".9"/><circle cx="752.0279579551077" cy="312.1141776686232" r="101" fill="#5c2110" opacity=".10"/><circle cx="752.0279579551077" cy="312.1141776686232" r="96" fill="#fff9f0"/><circle cx="752.0279579551077" cy="312.1141776686232" r="89" fill="none" stroke="#f7d98a" stroke-width="2.5" opacity=".8"/><circle cx="752.0279579551077" cy="312.1141776686232" r="59.5" fill="none" stroke="#f7d98a" stroke-width="1.2" opacity=".45"/><polygon points="804.5,312.1 800.7,333.2 786.1,350.6 764.6,361.7 740.0,359.5 717.0,351.7 711.4,329.7 701.5,312.1 701.1,290.1 719.1,274.9 739.6,263.0 762.3,271.6 783.6,276.5 795.1,293.4" fill="#3f6b4a"/><circle cx="734.8" cy="308.0" r="5.3" fill="#fff9f0" opacity=".16"/><circle cx="753.8" cy="319.4" r="10.9" fill="#fff9f0" opacity=".16"/><circle cx="752.5" cy="307.9" r="10.2" fill="#fff9f0" opacity=".16"/><circle cx="764.4" cy="324.6" r="6.0" fill="#fff9f0" opacity=".16"/><circle cx="779.2" cy="312.4" r="6.5" fill="#fff9f0" opacity=".16"/><circle cx="758.6" cy="337.6" r="10.6" fill="#fff9f0" opacity=".16"/><circle cx="744.7" cy="336.8" r="8.6" fill="#fff9f0" opacity=".16"/><circle cx="749.2" cy="307.2" r="11.1" fill="#fff9f0" opacity=".16"/><circle cx="741.0" cy="288.2" r="10.8" fill="#fff9f0" opacity=".16"/><circle cx="735.0" cy="303.9" r="2.5" fill="#f7d98a" opacity=".9"/><circle cx="731.0" cy="317.1" r="4.5" fill="#c2452a" opacity=".9"/><circle cx="764.3" cy="331.5" r="2.7" fill="#c2452a" opacity=".9"/><circle cx="783.4" cy="302.4" r="2.6" fill="#c2452a" opacity=".9"/><circle cx="769.0" cy="291.7" r="3.8" fill="#c2452a" opacity=".9"/><circle cx="757.4" cy="301.9" r="4.6" fill="#6f9a58" opacity=".9"/><circle cx="600" cy="450" r="113" fill="#5c2110" opacity=".10"/><circle cx="600" cy="450" r="108" fill="#fff9f0"/><circle cx="600" cy="450" r="101" fill="none" stroke="#f2c14e" stroke-width="2.5" opacity=".8"/><circle cx="600" cy="450" r="67.0" fill="none" stroke="#f2c14e" stroke-width="1.2" opacity=".45"/><polygon points="667.7,450.0 648.2,470.9 640.1,495.2 612.4,498.8 584.9,509.7 566.6,487.7 540.2,475.9 536.5,450.0 540.5,424.2 557.5,402.0 587.3,400.1 613.0,398.8 639.8,405.1 651.8,427.5" fill="#e07a28"/><circle cx="599.3" cy="457.2" r="12.6" fill="#fff9f0" opacity=".16"/><circle cx="620.9" cy="432.1" r="7.9" fill="#fff9f0" opacity=".16"/><circle cx="616.9" cy="442.6" r="7.9" fill="#fff9f0" opacity=".16"/><circle cx="585.0" cy="453.7" r="6.8" fill="#fff9f0" opacity=".16"/><circle cx="587.7" cy="445.5" r="10.4" fill="#fff9f0" opacity=".16"/><circle cx="621.7" cy="441.3" r="9.2" fill="#fff9f0" opacity=".16"/><circle cx="624.2" cy="426.2" r="9.8" fill="#fff9f0" opacity=".16"/><circle cx="600.7" cy="449.8" r="7.2" fill="#fff9f0" opacity=".16"/><circle cx="616.4" cy="476.2" r="11.3" fill="#fff9f0" opacity=".16"/><circle cx="597.9" cy="441.1" r="9.9" fill="#fff9f0" opacity=".16"/><circle cx="602.8" cy="447.9" r="7.1" fill="#fff9f0" opacity=".16"/><circle cx="616.7" cy="454.3" r="12.5" fill="#fff9f0" opacity=".16"/><circle cx="600.4" cy="454.9" r="3.9" fill="#c2452a" opacity=".9"/><circle cx="600.8" cy="450.5" r="5.3" fill="#f7d98a" opacity=".9"/><circle cx="611.4" cy="415.1" r="4.1" fill="#6f9a58" opacity=".9"/><circle cx="576.1" cy="478.8" r="3.3" fill="#6f9a58" opacity=".9"/><circle cx="601.2" cy="449.6" r="4.9" fill="#f7d98a" opacity=".9"/><circle cx="602.9" cy="441.2" r="3.4" fill="#c2452a" opacity=".9"/><circle cx="631.0" cy="415.9" r="2.8" fill="#c2452a" opacity=".9"/><circle cx="574.6" cy="430.1" r="3.2" fill="#f7d98a" opacity=".9"/><circle cx="600.2" cy="463.4" r="5.0" fill="#f7d98a" opacity=".9"/><circle cx="614.0" cy="450.6" r="5.1" fill="#f7d98a" opacity=".9"/><path d="M585 364 c-8 -16 8 -26 0 -42 c-8 -16 6 -24 0 -34" stroke="#5c2110" stroke-width="3.5" fill="none" opacity=".14" stroke-linecap="round"/><path d="M600 364 c-8 -16 8 -26 0 -42 c-8 -16 6 -24 0 -34" stroke="#5c2110" stroke-width="3.5" fill="none" opacity=".14" stroke-linecap="round"/><path d="M615 364 c-8 -16 8 -26 0 -42 c-8 -16 6 -24 0 -34" stroke="#5c2110" stroke-width="3.5" fill="none" opacity=".14" stroke-linecap="round"/><rect x="16" y="16" width="1168" height="868" fill="none" stroke="#f7d98a" stroke-width="2" opacity=".5" rx="6"/></svg>