<svg xmlns="http://www.w3.org/2000/svg" viewBox="0 0 1200 900" width="1200" height="900" role="img"><defs><radialGradient id="vig"><stop offset="0" stop-color="rgba(0,0,0,0)"/><stop offset="1" stop-color="rgba(40,20,10,0.16)"/></radialGradient><radialGradient id="warm"><stop offset="0" stop-color="#fdf0d0"/><stop offset="1" stop-color="#f7e6d3"/></radialGradient></defs><rect width="1200" height="900" fill="#f7e6d3"/><rect x="0" y="0" width="2" height="900" fill="#edd3b6" opacity=".55"/><rect x="46" y="0" width="2" height="900" fill="#edd3b6" opacity=".55"/><rect x="92" y="0" width="2" height="900" fill="#edd3b6" opacity=".55"/><rect x="138" y="0" width="2" height="900" fill="#edd3b6" opacity=".55"/><rect x="184" y="0" width="2" height="900" fill="#edd3b6" opacity=".55"/><rect x="230" y="0" width="2" height="900" fill="#edd3b6" opacity=".55"/><rect x="276" y="0" width="2" height="900" fill="#edd3b6" opacity=".55"/><rect x="322" y="0" width="2" height="900" fill="#edd3b6" opacity=".55"/><rect x="368" y="0" width="2" height="900" fill="#edd3b6" opacity=".55"/><rect x="414" y="0" width="2" height="900" fill="#edd3b6" opacity=".55"/><rect x="460" y="0" width="2" height="900" fill="#edd3b6" opacity=".55"/><rect x="506" y="0" width="2" height="900" fill="#edd3b6" opacity=".55"/><rect x="552" y="0" width="2" height="900" fill="#edd3b6" opacity=".55"/><rect x="598" y="0" width="2" height="900" fill="#edd3b6" opacity=".55"/><rect x="644" y="0" width="2" height="900" fill="#edd3b6" opacity=".55"/><rect x="690" y="0" width="2" height="900" fill="#edd3b6" opacity=".55"/><rect x="736" y="0" width="2" height="900" fill="#edd3b6" opacity=".55"/><rect x="782" y="0" width="2" height="900" fill="#edd3b6" opacity=".55"/><rect x="828" y="0" width="2" height="900" fill="#edd3b6" opacity=".55"/><rect x="874" y="0" width="2" height="900" fill="#edd3b6" opacity=".55"/><rect x="920" y="0" width="2" height="900" fill="#edd3b6" opacity=".55"/><rect x="966" y="0" width="2" height="900" fill="#edd3b6" opacity=".55"/><rect x="1012" y="0" width="2" height="900" fill="#edd3b6" opacity=".55"/><rect x="1058" y="0" width="2" height="900" fill="#edd3b6" opacity=".55"/><rect x="1104" y="0" width="2" height="900" fill="#edd3b6" opacity=".55"/><rect x="1150" y="0" width="2" height="900" fill="#edd3b6" opacity=".55"/><rect x="1196" y="0" width="2" height="900" fill="#edd3b6" opacity=".55"/><rect x="0" y="0" width="1200" height="2" fill="#edd3b6" opacity=".4"/><rect x="0" y="46" width="1200" height="2" fill="#edd3b6" opacity=".4"/><rect x="0" y="92" width="1200" height="2" fill="#edd3b6" opacity=".4"/><rect x="0" y="138" width="1200" height="2" fill="#edd3b6" opacity=".4"/><rect x="0" y="184" width="1200" height="2" fill="#edd3b6" opacity=".4"/><rect x="0" y="230" width="1200" height="2" fill="#edd3b6" opacity=".4"/><rect x="0" y="276" width="1200" height="2" fill="#edd3b6" opacity=".4"/><rect x="0" y="322" width="1200" height="2" fill="#edd3b6" opacity=".4"/><rect x="0" y="368" width="1200" height="2" fill="#edd3b6" opacity=".4"/><rect x="0" y="414" width="1200" height="2" fill="#edd3b6" opacity=".4"/><rect x="0" y="460" width="1200" height="2" fill="#edd3b6" opacity=".4"/><rect x="0" y="506" width="1200" height="2" fill="#edd3b6" opacity=".4"/><rect x="0" y="552" width="1200" height="2" fill="#edd3b6" opacity=".4"/><rect x="0" y="598" width="1200" height="2" fill="#edd3b6" opacity=".4"/><rect x="0" y="644" width="1200" height="2" fill="#edd3b6" opacity=".4"/><rect x="0" y="690" width="1200" height="2" fill="#edd3b6" opacity=".4"/><rect x="0" y="736" width="1200" height="2" fill="#edd3b6" opacity=".4"/><rect x="0" y="782" width="1200" height="2" fill="#edd3b6" opacity=".4"/><rect x="0" y="828" width="1200" height="2" fill="#edd3b6" opacity=".4"/><rect x="0" y="874" width="1200" height="2" fill="#edd3b6" opacity=".4"/><circle cx="483" cy="310" r="1" fill="#dfc0a0" opacity=".35"/><circle cx="811" cy="490" r="1" fill="#dfc0a0" opacity=".35"/><circle cx="184" cy="68" r="1" fill="#dfc0a0" opacity=".35"/><circle cx="822" cy="562" r="2" fill="#dfc0a0" opacity=".35"/><circle cx="120" cy="227" r="3" fill="#dfc0a0" opacity=".35"/><circle cx="1099" cy="368" r="2" fill="#dfc0a0" opacity=".35"/><circle cx="353" cy="846" r="1" fill="#dfc0a0" opacity=".35"/><circle cx="536" cy="219" r="1" fill="#dfc0a0" opacity=".35"/><circle cx="533" cy="819" r="2" fill="#dfc0a0" opacity=".35"/><circle cx="396" cy="168" r="2" fill="#dfc0a0" opacity=".35"/><circle cx="593" cy="642" r="3" fill="#dfc0a0" opacity=".35"/><circle cx="762" cy="88" r="3" fill="#dfc0a0" opacity=".35"/><circle cx="691" cy="687" r="2" fill="#dfc0a0" opacity=".35"/><circle cx="1036" cy="254" r="1" fill="#dfc0a0" opacity=".35"/><circle cx="506" cy="484" r="2" fill="#dfc0a0" opacity=".35"/><circle cx="182" cy="837" r="3" fill="#dfc0a0" opacity=".35"/><circle cx="614" cy="7" r="2" fill="#dfc0a0" opacity=".35"/><circle cx="1172" cy="721" r="2" fill="#dfc0a0" opacity=".35"/><circle cx="1041" cy="199" r="2" fill="#dfc0a0" opacity=".35"/><circle cx="867" cy="613" r="2" fill="#dfc0a0" opacity=".35"/><circle cx="882" cy="462" r="1" fill="#dfc0a0" opacity=".35"/><circle cx="477" cy="312" r="2" fill="#dfc0a0" opacity=".35"/><circle cx="88" cy="83" r="1" fill="#dfc0a0" opacity=".35"/><circle cx="947" cy="641" r="2" fill="#dfc0a0" opacity=".35"/><circle cx="1062" cy="547" r="3" fill="#dfc0a0" opacity=".35"/><circle cx="965" cy="717" r="2" fill="#dfc0a0" opacity=".35"/><circle cx="297" cy="689" r="1" fill="#dfc0a0" opacity=".35"/><circle cx="136" cy="422" r="1" fill="#dfc0a0" opacity=".35"/><circle cx="903" cy="282" r="1" fill="#dfc0a0" opacity=".35"/><circle cx="728" cy="446" r="3" fill="#dfc0a0" opacity=".35"/><circle cx="656" cy="649" r="3" fill="#dfc0a0" opacity=".35"/><circle cx="406" cy="331" r="1" fill="#dfc0a0" opacity=".35"/><circle cx="126" cy="725" r="1" fill="#dfc0a0" opacity=".35"/><circle cx="568" cy="783" r="3" fill="#dfc0a0" opacity=".35"/><circle cx="486" cy="125" r="2" fill="#dfc0a0" opacity=".35"/><circle cx="363" cy="297" r="2" fill="#dfc0a0" opacity=".35"/><circle cx="52" cy="43" r="2" fill="#dfc0a0" opacity=".35"/><circle cx="169" cy="292" r="3" fill="#dfc0a0" opacity=".35"/><circle cx="669" cy="18" r="2" fill="#dfc0a0" opacity=".35"/><circle cx="591" cy="329" r="1" fill="#dfc0a0" opacity=".35"/><circle cx="840" cy="882" r="3" fill="#dfc0a0" opacity=".35"/><circle cx="159" cy="300" r="3" fill="#dfc0a0" opacity=".35"/><circle cx="392" cy="454" r="2" fill="#dfc0a0" opacity=".35"/><circle cx="279" cy="256" r="2" fill="#dfc0a0" opacity=".35"/><circle cx="325" cy="339" r="3" fill="#dfc0a0" opacity=".35"/><circle cx="19" cy="372" r="1" fill="#dfc0a0" opacity=".35"/><circle cx="931" cy="173" r="2" fill="#dfc0a0" opacity=".35"/><circle cx="742" cy="297" r="3" fill="#dfc0a0" opacity=".35"/><circle cx="198" cy="449" r="1" fill="#dfc0a0" opacity=".35"/><circle cx="868" cy="212" r="1" fill="#dfc0a0" opacity=".35"/><circle cx="121" cy="63" r="1" fill="#dfc0a0" opacity=".35"/><circle cx="345" cy="609" r="3" fill="#dfc0a0" opacity=".35"/><circle cx="306" cy="621" r="1" fill="#dfc0a0" opacity=".35"/><circle cx="1118" cy="502" r="3" fill="#dfc0a0" opacity=".35"/><circle cx="510" cy="329" r="1" fill="#dfc0a0" opacity=".35"/><circle cx="250" cy="854" r="3" fill="#dfc0a0" opacity=".35"/><circle cx="599" cy="792" r="2" fill="#dfc0a0" opacity=".35"/><circle cx="410" cy="489" r="1" fill="#dfc0a0" opacity=".35"/><circle cx="495" cy="449" r="2" fill="#dfc0a0" opacity=".35"/><circle cx="1007" cy="37" r="1" fill="#dfc0a0" opacity=".35"/><circle cx="862" cy="454" r="1" fill="#dfc0a0" opacity=".35"/><circle cx="876" cy="850" r="1" fill="#dfc0a0" opacity=".35"/><circle cx="1021" cy="192" r="1" fill="#dfc0a0" opacity=".35"/><circle cx="75" cy="260" r="2" fill="#dfc0a0" opacity=".35"/><circle cx="496" cy="538" r="1" fill="#dfc0a0" opacity=".35"/><circle cx="474" cy="427" r="2" fill="#dfc0a0" opacity=".35"/><circle cx="290" cy="332" r="1" fill="#dfc0a0" opacity=".35"/><circle cx="644" cy="578" r="1" fill="#dfc0a0" opacity=".35"/><circle cx="1166" cy="412" r="3" fill="#dfc0a0" opacity=".35"/><circle cx="82" cy="506" r="2" fill="#dfc0a0" opacity=".35"/><circle cx="190" cy="440" r="1" fill="#dfc0a0" opacity=".35"/><circle cx="1172" cy="169" r="2" fill="#dfc0a0" opacity=".35"/><circle cx="606" cy="672" r="2" fill="#dfc0a0" opacity=".35"/><circle cx="645" cy="834" r="2" fill="#dfc0a0" opacity=".35"/><circle cx="1081" cy="220" r="3" fill="#dfc0a0" opacity=".35"/><circle cx="549" cy="346" r="2" fill="#dfc0a0" opacity=".35"/><circle cx="1016" cy="76" r="2" fill="#dfc0a0" opacity=".35"/><circle cx="391" cy="45" r="2" fill="#dfc0a0" opacity=".35"/><circle cx="261" cy="785" r="2" fill="#dfc0a0" opacity=".35"/><circle cx="123" cy="890" r="1" fill="#dfc0a0" opacity=".35"/><circle cx="951" cy="582" r="2" fill="#dfc0a0" opacity=".35"/><circle cx="826" cy="399" r="1" fill="#dfc0a0" opacity=".35"/><circle cx="6" cy="216" r="1" fill="#dfc0a0" opacity=".35"/><circle cx="26" cy="624" r="2" fill="#dfc0a0" opacity=".35"/><circle cx="237" cy="405" r="2" fill="#dfc0a0" opacity=".35"/><circle cx="455" cy="563" r="1" fill="#dfc0a0" opacity=".35"/><circle cx="413" cy="165" r="3" fill="#dfc0a0" opacity=".35"/><circle cx="677" cy="838" r="3" fill="#dfc0a0" opacity=".35"/><circle cx="965" cy="539" r="2" fill="#dfc0a0" opacity=".35"/><circle cx="54" cy="80" r="1" fill="#dfc0a0" opacity=".35"/><rect width="1200" height="900" fill="url(#vig)"/><rect x="80" y="80" width="1040" height="740" rx="22" fill="#fdf0d0"/><rect x="80" y="80" width="1040" height="740" rx="22" fill="none" stroke="#f2c14e" stroke-width="3"/><circle cx="210.0" cy="203.33333333333331" r="66" fill="#fff9f0" opacity=".8"/><circle cx="210.0" cy="203.33333333333331" r="44" fill="#e8a92b"/><circle cx="198.0" cy="189.33333333333331" r="12" fill="#fff9f0" opacity=".3"/><circle cx="226.0" cy="185.33333333333331" r="5" fill="#f2c14e" opacity=".85"/><circle cx="470.0" cy="203.33333333333331" r="66" fill="#fff9f0" opacity=".8"/><rect x="432.0" y="165.33333333333331" width="76" height="76" rx="8" fill="#fbf1de" transform="rotate(45 470.0 203.33333333333331)"/><circle cx="486.0" cy="185.33333333333331" r="5" fill="#f2c14e" opacity=".85"/><circle cx="730.0" cy="203.33333333333331" r="66" fill="#fff9f0" opacity=".8"/><rect x="690.0" y="171.33333333333331" width="80" height="64" rx="10" fill="#e07a28"/><circle cx="746.0" cy="185.33333333333331" r="5" fill="#f2c14e" opacity=".85"/><circle cx="990.0" cy="203.33333333333331" r="66" fill="#fff9f0" opacity=".8"/><circle cx="990.0" cy="203.33333333333331" r="44" fill="#8e3f57"/><circle cx="978.0" cy="189.33333333333331" r="12" fill="#fff9f0" opacity=".3"/><circle cx="1006.0" cy="185.33333333333331" r="5" fill="#f2c14e" opacity=".85"/><circle cx="210.0" cy="450.0" r="66" fill="#fff9f0" opacity=".8"/><rect x="172.0" y="412.0" width="76" height="76" rx="8" fill="#f7d98a" transform="rotate(45 210.0 450.0)"/><circle cx="226.0" cy="432.0" r="5" fill="#f2c14e" opacity=".85"/><circle cx="470.0" cy="450.0" r="66" fill="#fff9f0" opacity=".8"/><rect x="430.0" y="418.0" width="80" height="64" rx="10" fill="#8a4a26"/><circle cx="486.0" cy="432.0" r="5" fill="#f2c14e" opacity=".85"/><circle cx="730.0" cy="450.0" r="66" fill="#fff9f0" opacity=".8"/><circle cx="730.0" cy="450.0" r="44" fill="#e8a92b"/><circle cx="718.0" cy="436.0" r="12" fill="#fff9f0" opacity=".3"/><circle cx="746.0" cy="432.0" r="5" fill="#f2c14e" opacity=".85"/><circle cx="990.0" cy="450.0" r="66" fill="#fff9f0" opacity=".8"/><rect x="952.0" y="412.0" width="76" height="76" rx="8" fill="#fbf1de" transform="rotate(45 990.0 450.0)"/><circle cx="1006.0" cy="432.0" r="5" fill="#f2c14e" opacity=".85"/><circle cx="210.0" cy="696.6666666666666" r="66" fill="#fff9f0" opacity=".8"/><rect x="170.0" y="664.6666666666666" width="80" height="64" rx="10" fill="#e07a28"/><circle cx="226.0" cy="678.6666666666666" r="5" fill="#f2c14e" opacity=".85"/><circle cx="470.0" cy="696.6666666666666" r="66" fill="#fff9f0" opacity=".8"/><circle cx="470.0" cy="696.6666666666666" r="44" fill="#8e3f57"/><circle cx="458.0" cy="682.6666666666666" r="12" fill="#fff9f0" opacity=".3"/><circle cx="486.0" cy="678.6666666666666" r="5" fill="#f2c14e" opacity=".85"/><circle cx="730.0" cy="696.6666666666666" r="66" fill="#fff9f0" opacity=".8"/><rect x="692.0" y="658.6666666666666" width="76" height="76" rx="8" fill="#f7d98a" transform="rotate(45 730.0 696.6666666666666)"/><circle cx="746.0" cy="678.6666666666666" r="5" fill="#f2c14e" opacity=".85"/><circle cx="990.0" cy="696.6666666666666" r="66" fill="#fff9f0" opacity=".8"/><rect x="950.0" y="664.6666666666666" width="80" height="64" rx="10" fill="#8a4a26"/><circle cx="1006.0" cy="678.6666666666666" r="5" fill="#f2c14e" opacity=".85"/><rect x="16" y="16" width="1168" height="868" fill="none" stroke="#f7d98a" stroke-width="2" opacity=".5" rx="6"/></svg>