<svg xmlns="http://www.w3.org/2000/svg" viewBox="0 0 1200 900" width="1200" height="900" role="img"><defs><radialGradient id="vig"><stop offset="0" stop-color="rgba(0,0,0,0)"/><stop offset="1" stop-color="rgba(40,20,10,0.16)"/></radialGradient><radialGradient id="warm"><stop offset="0" stop-color="#fdf0d0"/><stop offset="1" stop-color="#f7e6d3"/></radialGradient></defs><rect width="1200" height="900" fill="#f7e6d3"/><rect x="0" y="0" width="2" height="900" fill="#edd3b6" opacity=".55"/><rect x="46" y="0" width="2" height="900" fill="#edd3b6" opacity=".55"/><rect x="92" y="0" width="2" height="900" fill="#edd3b6" opacity=".55"/><rect x="138" y="0" width="2" height="900" fill="#edd3b6" opacity=".55"/><rect x="184" y="0" width="2" height="900" fill="#edd3b6" opacity=".55"/><rect x="230" y="0" width="2" height="900" fill="#edd3b6" opacity=".55"/><rect x="276" y="0" width="2" height="900" fill="#edd3b6" opacity=".55"/><rect x="322" y="0" width="2" height="900" fill="#edd3b6" opacity=".55"/><rect x="368" y="0" width="2" height="900" fill="#edd3b6" opacity=".55"/><rect x="414" y="0" width="2" height="900" fill="#edd3b6" opacity=".55"/><rect x="460" y="0" width="2" height="900" fill="#edd3b6" opacity=".55"/><rect x="506" y="0" width="2" height="900" fill="#edd3b6" opacity=".55"/><rect x="552" y="0" width="2" height="900" fill="#edd3b6" opacity=".55"/><rect x="598" y="0" width="2" height="900" fill="#edd3b6" opacity=".55"/><rect x="644" y="0" width="2" height="900" fill="#edd3b6" opacity=".55"/><rect x="690" y="0" width="2" height="900" fill="#edd3b6" opacity=".55"/><rect x="736" y="0" width="2" height="900" fill="#edd3b6" opacity=".55"/><rect x="782" y="0" width="2" height="900" fill="#edd3b6" opacity=".55"/><rect x="828" y="0" width="2" height="900" fill="#edd3b6" opacity=".55"/><rect x="874" y="0" width="2" height="900" fill="#edd3b6" opacity=".55"/><rect x="920" y="0" width="2" height="900" fill="#edd3b6" opacity=".55"/><rect x="966" y="0" width="2" height="900" fill="#edd3b6" opacity=".55"/><rect x="1012" y="0" width="2" height="900" fill="#edd3b6" opacity=".55"/><rect x="1058" y="0" width="2" height="900" fill="#edd3b6" opacity=".55"/><rect x="1104" y="0" width="2" height="900" fill="#edd3b6" opacity=".55"/><rect x="1150" y="0" width="2" height="900" fill="#edd3b6" opacity=".55"/><rect x="1196" y="0" width="2" height="900" fill="#edd3b6" opacity=".55"/><rect x="0" y="0" width="1200" height="2" fill="#edd3b6" opacity=".4"/><rect x="0" y="46" width="1200" height="2" fill="#edd3b6" opacity=".4"/><rect x="0" y="92" width="1200" height="2" fill="#edd3b6" opacity=".4"/><rect x="0" y="138" width="1200" height="2" fill="#edd3b6" opacity=".4"/><rect x="0" y="184" width="1200" height="2" fill="#edd3b6" opacity=".4"/><rect x="0" y="230" width="1200" height="2" fill="#edd3b6" opacity=".4"/><rect x="0" y="276" width="1200" height="2" fill="#edd3b6" opacity=".4"/><rect x="0" y="322" width="1200" height="2" fill="#edd3b6" opacity=".4"/><rect x="0" y="368" width="1200" height="2" fill="#edd3b6" opacity=".4"/><rect x="0" y="414" width="1200" height="2" fill="#edd3b6" opacity=".4"/><rect x="0" y="460" width="1200" height="2" fill="#edd3b6" opacity=".4"/><rect x="0" y="506" width="1200" height="2" fill="#edd3b6" opacity=".4"/><rect x="0" y="552" width="1200" height="2" fill="#edd3b6" opacity=".4"/><rect x="0" y="598" width="1200" height="2" fill="#edd3b6" opacity=".4"/><rect x="0" y="644" width="1200" height="2" fill="#edd3b6" opacity=".4"/><rect x="0" y="690" width="1200" height="2" fill="#edd3b6" opacity=".4"/><rect x="0" y="736" width="1200" height="2" fill="#edd3b6" opacity=".4"/><rect x="0" y="782" width="1200" height="2" fill="#edd3b6" opacity=".4"/><rect x="0" y="828" width="1200" height="2" fill="#edd3b6" opacity=".4"/><rect x="0" y="874" width="1200" height="2" fill="#edd3b6" opacity=".4"/><circle cx="971" cy="275" r="3" fill="#dfc0a0" opacity=".35"/><circle cx="1083" cy="682" r="2" fill="#dfc0a0" opacity=".35"/><circle cx="292" cy="390" r="1" fill="#dfc0a0" opacity=".35"/><circle cx="767" cy="494" r="2" fill="#dfc0a0" opacity=".35"/><circle cx="942" cy="707" r="3" fill="#dfc0a0" opacity=".35"/><circle cx="466" cy="571" r="1" fill="#dfc0a0" opacity=".35"/><circle cx="297" cy="450" r="2" fill="#dfc0a0" opacity=".35"/><circle cx="332" cy="347" r="1" fill="#dfc0a0" opacity=".35"/><circle cx="120" cy="590" r="1" fill="#dfc0a0" opacity=".35"/><circle cx="152" cy="525" r="3" fill="#dfc0a0" opacity=".35"/><circle cx="690" cy="697" r="2" fill="#dfc0a0" opacity=".35"/><circle cx="178" cy="19" r="1" fill="#dfc0a0" opacity=".35"/><circle cx="1042" cy="228" r="1" fill="#dfc0a0" opacity=".35"/><circle cx="867" cy="454" r="1" fill="#dfc0a0" opacity=".35"/><circle cx="866" cy="138" r="3" fill="#dfc0a0" opacity=".35"/><circle cx="640" cy="636" r="3" fill="#dfc0a0" opacity=".35"/><circle cx="334" cy="713" r="1" fill="#dfc0a0" opacity=".35"/><circle cx="1136" cy="175" r="3" fill="#dfc0a0" opacity=".35"/><circle cx="171" cy="410" r="3" fill="#dfc0a0" opacity=".35"/><circle cx="857" cy="684" r="3" fill="#dfc0a0" opacity=".35"/><circle cx="961" cy="488" r="3" fill="#dfc0a0" opacity=".35"/><circle cx="787" cy="554" r="1" fill="#dfc0a0" opacity=".35"/><circle cx="169" cy="196" r="3" fill="#dfc0a0" opacity=".35"/><circle cx="535" cy="364" r="2" fill="#dfc0a0" opacity=".35"/><circle cx="789" cy="689" r="2" fill="#dfc0a0" opacity=".35"/><circle cx="233" cy="258" r="1" fill="#dfc0a0" opacity=".35"/><circle cx="686" cy="372" r="2" fill="#dfc0a0" opacity=".35"/><circle cx="1047" cy="586" r="3" fill="#dfc0a0" opacity=".35"/><circle cx="367" cy="28" r="2" fill="#dfc0a0" opacity=".35"/><circle cx="880" cy="33" r="3" fill="#dfc0a0" opacity=".35"/><circle cx="52" cy="227" r="3" fill="#dfc0a0" opacity=".35"/><circle cx="874" cy="44" r="2" fill="#dfc0a0" opacity=".35"/><circle cx="418" cy="790" r="3" fill="#dfc0a0" opacity=".35"/><circle cx="210" cy="771" r="3" fill="#dfc0a0" opacity=".35"/><circle cx="451" cy="182" r="1" fill="#dfc0a0" opacity=".35"/><circle cx="560" cy="37" r="2" fill="#dfc0a0" opacity=".35"/><circle cx="566" cy="510" r="2" fill="#dfc0a0" opacity=".35"/><circle cx="106" cy="526" r="2" fill="#dfc0a0" opacity=".35"/><circle cx="754" cy="213" r="2" fill="#dfc0a0" opacity=".35"/><circle cx="577" cy="466" r="2" fill="#dfc0a0" opacity=".35"/><circle cx="985" cy="245" r="1" fill="#dfc0a0" opacity=".35"/><circle cx="951" cy="562" r="2" fill="#dfc0a0" opacity=".35"/><circle cx="372" cy="193" r="3" fill="#dfc0a0" opacity=".35"/><circle cx="450" cy="621" r="1" fill="#dfc0a0" opacity=".35"/><circle cx="549" cy="789" r="2" fill="#dfc0a0" opacity=".35"/><circle cx="367" cy="247" r="1" fill="#dfc0a0" opacity=".35"/><circle cx="1026" cy="40" r="1" fill="#dfc0a0" opacity=".35"/><circle cx="237" cy="369" r="3" fill="#dfc0a0" opacity=".35"/><circle cx="1031" cy="158" r="1" fill="#dfc0a0" opacity=".35"/><circle cx="660" cy="806" r="3" fill="#dfc0a0" opacity=".35"/><circle cx="572" cy="654" r="1" fill="#dfc0a0" opacity=".35"/><circle cx="470" cy="802" r="3" fill="#dfc0a0" opacity=".35"/><circle cx="1028" cy="488" r="2" fill="#dfc0a0" opacity=".35"/><circle cx="724" cy="268" r="3" fill="#dfc0a0" opacity=".35"/><circle cx="911" cy="756" r="1" fill="#dfc0a0" opacity=".35"/><circle cx="919" cy="298" r="3" fill="#dfc0a0" opacity=".35"/><circle cx="94" cy="284" r="2" fill="#dfc0a0" opacity=".35"/><circle cx="1055" cy="655" r="3" fill="#dfc0a0" opacity=".35"/><circle cx="911" cy="721" r="1" fill="#dfc0a0" opacity=".35"/><circle cx="583" cy="533" r="2" fill="#dfc0a0" opacity=".35"/><circle cx="58" cy="699" r="1" fill="#dfc0a0" opacity=".35"/><circle cx="55" cy="134" r="3" fill="#dfc0a0" opacity=".35"/><circle cx="544" cy="430" r="1" fill="#dfc0a0" opacity=".35"/><circle cx="494" cy="205" r="2" fill="#dfc0a0" opacity=".35"/><circle cx="966" cy="60" r="3" fill="#dfc0a0" opacity=".35"/><circle cx="1167" cy="639" r="3" fill="#dfc0a0" opacity=".35"/><circle cx="528" cy="778" r="1" fill="#dfc0a0" opacity=".35"/><circle cx="855" cy="441" r="3" fill="#dfc0a0" opacity=".35"/><circle cx="190" cy="414" r="1" fill="#dfc0a0" opacity=".35"/><circle cx="1188" cy="570" r="2" fill="#dfc0a0" opacity=".35"/><circle cx="754" cy="653" r="3" fill="#dfc0a0" opacity=".35"/><circle cx="788" cy="576" r="1" fill="#dfc0a0" opacity=".35"/><circle cx="35" cy="705" r="3" fill="#dfc0a0" opacity=".35"/><circle cx="318" cy="31" r="1" fill="#dfc0a0" opacity=".35"/><circle cx="149" cy="425" r="3" fill="#dfc0a0" opacity=".35"/><circle cx="409" cy="808" r="2" fill="#dfc0a0" opacity=".35"/><circle cx="201" cy="727" r="2" fill="#dfc0a0" opacity=".35"/><circle cx="386" cy="319" r="2" fill="#dfc0a0" opacity=".35"/><circle cx="1109" cy="503" r="3" fill="#dfc0a0" opacity=".35"/><circle cx="255" cy="217" r="3" fill="#dfc0a0" opacity=".35"/><circle cx="807" cy="594" r="1" fill="#dfc0a0" opacity=".35"/><circle cx="146" cy="416" r="2" fill="#dfc0a0" opacity=".35"/><circle cx="662" cy="84" r="3" fill="#dfc0a0" opacity=".35"/><circle cx="680" cy="145" r="3" fill="#dfc0a0" opacity=".35"/><circle cx="185" cy="738" r="2" fill="#dfc0a0" opacity=".35"/><circle cx="636" cy="712" r="1" fill="#dfc0a0" opacity=".35"/><circle cx="892" cy="374" r="1" fill="#dfc0a0" opacity=".35"/><circle cx="60" cy="214" r="2" fill="#dfc0a0" opacity=".35"/><circle cx="908" cy="497" r="1" fill="#dfc0a0" opacity=".35"/><circle cx="116" cy="683" r="3" fill="#dfc0a0" opacity=".35"/><rect width="1200" height="900" fill="url(#vig)"/><rect x="70" y="558" width="1060" height="216" rx="16" fill="#fff9f0" opacity=".75"/><path d="M111.0 271.0 L241.0 271.0 L222 521.0 L130 521.0Z" fill="#fff9f0" opacity=".9"/><path d="M116.0 283.0 L236.0 283.0 L218 517.0 L134 517.0Z" fill="#c2452a" opacity=".85"/><rect x="117.0" y="277.0" width="4" height="150" fill="#fff9f0" opacity=".7" rx="2"/><circle cx="222" cy="278" r="22" fill="#6f9a58" opacity=".9"/><rect x="168" y="206" width="8" height="110" rx="4" fill="#f2c14e" transform="rotate(12 176.0 256)"/><circle cx="146" cy="436" r="5.0" fill="#fff9f0" opacity=".45"/><circle cx="164" cy="448" r="4.4" fill="#fff9f0" opacity=".45"/><circle cx="182" cy="460" r="3.8" fill="#fff9f0" opacity=".45"/><circle cx="200" cy="472" r="3.2" fill="#fff9f0" opacity=".45"/><path d="M323.0 271.0 L453.0 271.0 L434 521.0 L342 521.0Z" fill="#fff9f0" opacity=".9"/><path d="M328.0 283.0 L448.0 283.0 L430 517.0 L346 517.0Z" fill="#e07a28" opacity=".85"/><rect x="329.0" y="277.0" width="4" height="150" fill="#fff9f0" opacity=".7" rx="2"/><circle cx="434" cy="278" r="22" fill="#6f9a58" opacity=".9"/><rect x="380" y="206" width="8" height="110" rx="4" fill="#f2c14e" transform="rotate(12 388.0 256)"/><circle cx="358" cy="436" r="5.0" fill="#fff9f0" opacity=".45"/><circle cx="376" cy="448" r="4.4" fill="#fff9f0" opacity=".45"/><circle cx="394" cy="460" r="3.8" fill="#fff9f0" opacity=".45"/><circle cx="412" cy="472" r="3.2" fill="#fff9f0" opacity=".45"/><path d="M535.0 271.0 L665.0 271.0 L646 521.0 L554 521.0Z" fill="#fff9f0" opacity=".9"/><path d="M540.0 283.0 L660.0 283.0 L642 517.0 L558 517.0Z" fill="#6f9a58" opacity=".85"/><rect x="541.0" y="277.0" width="4" height="150" fill="#fff9f0" opacity=".7" rx="2"/><circle cx="646" cy="278" r="22" fill="#6f9a58" opacity=".9"/><rect x="592" y="206" width="8" height="110" rx="4" fill="#f2c14e" transform="rotate(12 600.0 256)"/><circle cx="570" cy="436" r="5.0" fill="#fff9f0" opacity=".45"/><circle cx="588" cy="448" r="4.4" fill="#fff9f0" opacity=".45"/><circle cx="606" cy="460" r="3.8" fill="#fff9f0" opacity=".45"/><circle cx="624" cy="472" r="3.2" fill="#fff9f0" opacity=".45"/><path d="M747.0 271.0 L877.0 271.0 L858 521.0 L766 521.0Z" fill="#fff9f0" opacity=".9"/><path d="M752.0 283.0 L872.0 283.0 L854 517.0 L770 517.0Z" fill="#8e3f57" opacity=".85"/><rect x="753.0" y="277.0" width="4" height="150" fill="#fff9f0" opacity=".7" rx="2"/><circle cx="858" cy="278" r="22" fill="#6f9a58" opacity=".9"/><rect x="804" y="206" width="8" height="110" rx="4" fill="#f2c14e" transform="rotate(12 812.0 256)"/><circle cx="782" cy="436" r="5.0" fill="#fff9f0" opacity=".45"/><circle cx="800" cy="448" r="4.4" fill="#fff9f0" opacity=".45"/><circle cx="818" cy="460" r="3.8" fill="#fff9f0" opacity=".45"/><circle cx="836" cy="472" r="3.2" fill="#fff9f0" opacity=".45"/><path d="M959.0 271.0 L1089.0 271.0 L1070 521.0 L978 521.0Z" fill="#fff9f0" opacity=".9"/><path d="M964.0 283.0 L1084.0 283.0 L1066 517.0 L982 517.0Z" fill="#e8a92b" opacity=".85"/><rect x="965.0" y="277.0" width="4" height="150" fill="#fff9f0" opacity=".7" rx="2"/><circle cx="1070" cy="278" r="22" fill="#6f9a58" opacity=".9"/><rect x="1016" y="206" width="8" height="110" rx="4" fill="#f2c14e" transform="rotate(12 1024.0 256)"/><circle cx="994" cy="436" r="5.0" fill="#fff9f0" opacity=".45"/><circle cx="1012" cy="448" r="4.4" fill="#fff9f0" opacity=".45"/><circle cx="1030" cy="460" r="3.8" fill="#fff9f0" opacity=".45"/><circle cx="1048" cy="472" r="3.2" fill="#fff9f0" opacity=".45"/><rect x="16" y="16" width="1168" height="868" fill="none" stroke="#f7d98a" stroke-width="2" opacity=".5" rx="6"/></svg>